<svg xmlns="http://www.w3.org/2000/svg" width="512" height="512" viewBox="0 0 512 512" version="1.1">
	<path d="M 136.694 43.991 C 105.451 62.062, 79.242 77.385, 78.451 78.040 C 77.234 79.051, 76.975 89.166, 76.757 144.229 L 76.500 209.225 53 222.727 C 40.075 230.153, 29.169 236.740, 28.765 237.365 C 27.805 238.849, 27.805 372.168, 28.765 373.582 C 29.169 374.177, 70.225 398.315, 120 427.222 C 169.775 456.129, 218.320 484.329, 227.877 489.890 C 237.434 495.450, 246.225 500, 247.412 500 C 248.599 500, 301.270 470.075, 364.459 433.500 C 427.647 396.925, 480.169 367, 481.173 367 C 482.924 367, 483 364.187, 483 299.200 C 483 247.274, 482.715 231.115, 481.783 230.183 C 481.114 229.514, 466.489 220.789, 449.283 210.795 L 418 192.624 418 166.746 C 418 151.671, 417.589 140.100, 417.015 139.028 C 416.473 138.016, 414.111 136.093, 411.765 134.756 C 409.419 133.418, 384.559 118.924, 356.520 102.546 C 274.691 54.749, 264.153 48.845, 261.288 49.191 C 257.653 49.630, 255.712 52.835, 257.288 55.798 C 258.068 57.265, 283.978 72.874, 330 99.602 C 369.325 122.440, 401.843 141.463, 402.261 141.875 C 403.375 142.969, 298.280 200.306, 296.172 199.755 C 293.498 199.056, 93.049 81.849, 93.018 80.967 C 92.994 80.274, 195.381 20.997, 196.584 21.008 C 197.088 21.013, 202 23.709, 207.500 27 C 213 30.291, 218.480 32.987, 219.679 32.992 C 223.443 33.006, 226.085 29.180, 224.235 26.393 C 222.849 24.306, 198.208 11, 195.853 11.067 C 194.559 11.104, 167.937 25.920, 136.694 43.991 M 229.655 33.829 C 225.765 38.127, 228.089 41.324, 238.811 46.424 C 244.794 49.270, 245.012 49.299, 246.979 47.519 C 249.464 45.270, 249.585 41.824, 247.250 39.772 C 244.559 37.406, 234.524 32, 232.824 32 C 231.991 32, 230.565 32.823, 229.655 33.829 M 87.242 149.959 L 87.500 210.158 188.500 268.660 C 244.050 300.836, 290.066 327.400, 290.758 327.691 C 291.762 328.113, 291.964 316.157, 291.758 268.441 L 291.500 208.662 236.500 176.766 C 206.250 159.224, 161.250 133.127, 136.500 118.773 C 111.750 104.420, 90.484 92.020, 89.242 91.218 L 86.984 89.760 87.242 149.959 M 109.200 127.200 C 108.310 128.090, 108 137.903, 108 165.165 C 108 200.490, 108.076 201.970, 109.934 202.965 C 112.682 204.435, 113.731 204.269, 116 202 C 117.925 200.075, 118 198.667, 118 164.655 C 118 131.683, 117.877 129.199, 116.171 127.655 C 114.023 125.711, 110.893 125.507, 109.200 127.200 M 135.223 142.557 L 133 144.113 133 179.902 C 133 213.303, 133.122 215.800, 134.829 217.345 C 136.977 219.289, 140.107 219.493, 141.800 217.800 C 142.690 216.910, 143 207.097, 143 179.835 C 143 144.510, 142.924 143.030, 141.066 142.035 C 138.500 140.662, 137.844 140.720, 135.223 142.557 M 396 154.266 C 391.325 157.129, 368.150 170.560, 344.500 184.114 L 301.500 208.758 301.242 268.379 C 301.100 301.171, 301.325 327.996, 301.742 327.991 C 302.159 327.987, 325.675 314.574, 354 298.186 L 405.500 268.389 405.758 208.695 C 405.900 175.863, 405.675 149.014, 405.258 149.031 C 404.841 149.048, 400.675 151.404, 396 154.266 M 160.200 157.200 C 158.479 158.921, 158.479 230.079, 160.200 231.800 C 160.860 232.460, 162.570 233, 164 233 C 165.430 233, 167.140 232.460, 167.800 231.800 C 169.371 230.229, 169.525 160.850, 167.965 157.934 C 166.792 155.742, 162.101 155.299, 160.200 157.200 M 351.524 190.608 C 328.987 203.536, 310.207 214.650, 309.789 215.307 C 308.588 217.196, 308.824 307.802, 310.035 310.066 C 310.651 311.216, 312.123 312, 313.667 312 C 316.068 312, 393.047 268.924, 397.250 265.229 C 398.870 263.804, 399 260.209, 399 216.902 L 399 170.113 396.777 168.557 C 395.555 167.701, 394.093 167.023, 393.527 167.051 C 392.962 167.079, 374.061 177.679, 351.524 190.608 M 185.597 173.165 C 184.209 175.147, 184 179.992, 184 210.223 C 184 243.667, 184.077 245.077, 186 247 C 188.367 249.367, 189.927 249.505, 192.559 247.581 C 194.407 246.231, 194.512 244.498, 194.755 211.331 C 195.033 173.500, 194.821 171.776, 189.824 171.193 C 187.993 170.979, 186.708 171.579, 185.597 173.165 M 381.250 183.105 L 376 186.165 376 225.625 L 376 265.084 380.750 262.370 C 383.363 260.877, 386.063 259.228, 386.750 258.705 C 387.712 257.974, 388 248.806, 388 218.878 C 388 197.495, 387.663 180.010, 387.250 180.022 C 386.837 180.034, 384.137 181.421, 381.250 183.105 M 212.223 186.557 L 210 188.113 210 223.985 C 210 262.791, 210.029 263, 215.371 263 C 219.957 263, 220 262.638, 220 224.357 L 220 188.113 217.777 186.557 C 216.555 185.701, 215.305 185, 215 185 C 214.695 185, 213.445 185.701, 212.223 186.557 M 354 199.317 L 343.500 205.572 343.238 244.786 C 343.095 266.354, 343.320 283.999, 343.738 283.997 C 344.157 283.996, 349.225 281.159, 355 277.692 L 365.500 271.389 365.762 232.195 C 365.905 210.638, 365.680 193.014, 365.262 193.031 C 364.843 193.048, 359.775 195.877, 354 199.317 M 237.200 202.200 C 235.479 203.921, 235.479 275.079, 237.200 276.800 C 239.101 278.701, 243.792 278.258, 244.965 276.066 C 245.621 274.839, 246 261.460, 246 239.500 C 246 217.540, 245.621 204.161, 244.965 202.934 C 243.792 200.742, 239.101 200.299, 237.200 202.200 M 416 233.550 L 416 263.163 419.250 261.201 C 421.038 260.122, 432.400 253.504, 444.500 246.494 C 456.600 239.485, 466.598 233.670, 466.718 233.574 C 466.905 233.423, 424.942 208.825, 418.345 205.218 L 416 203.936 416 233.550 M 328 214.658 C 319.239 219.795, 320 215.611, 320 258.655 C 320 286.458, 320.310 297, 321.128 297 C 321.749 297, 324.674 295.617, 327.628 293.927 L 333 290.853 333 251.427 C 333 229.742, 332.887 212.004, 332.750 212.009 C 332.613 212.015, 330.475 213.206, 328 214.658 M 263.655 217.829 C 262.181 219.457, 262 223.505, 262 254.829 C 262 288.667, 262.076 290.076, 264 292 C 266.269 294.269, 267.318 294.435, 270.066 292.965 C 271.924 291.970, 272 290.488, 272 255 C 272 219.512, 271.924 218.030, 270.066 217.035 C 267.270 215.539, 265.533 215.754, 263.655 217.829 M 62.702 229.945 L 43.903 240.703 56.202 247.741 C 62.966 251.612, 108.975 278.243, 158.444 306.922 C 214.411 339.367, 248.976 358.842, 249.944 358.476 C 252.814 357.389, 285.980 338.507, 285.990 337.954 C 285.996 337.654, 280.938 334.531, 274.750 331.014 C 263.514 324.628, 231.364 305.968, 133.691 249.142 C 105.196 232.564, 81.796 219.042, 81.691 219.094 C 81.586 219.145, 73.041 224.028, 62.702 229.945 M 420.500 271.843 L 369.500 301.599 369.242 361.299 C 369.100 394.135, 369.285 421, 369.652 421 C 370.020 421, 393.423 407.624, 421.660 391.277 L 473 361.553 473 301.777 C 473 268.899, 472.663 242.020, 472.250 242.044 C 471.837 242.068, 448.550 255.478, 420.500 271.843 M 39.134 282.191 C 39.207 299.961, 39.545 326.757, 39.884 341.738 L 40.500 368.975 141 428.091 C 196.275 460.604, 242.066 487.434, 242.758 487.713 C 243.762 488.118, 243.964 476.171, 243.758 428.558 L 243.500 368.896 222.500 356.608 C 210.950 349.850, 165.275 323.268, 121 297.537 C 76.725 271.806, 40.163 250.558, 39.750 250.318 C 39.337 250.078, 39.060 264.421, 39.134 282.191 M 417.500 282.815 L 376.500 306.591 376.238 354.045 C 375.996 397.770, 376.110 401.598, 377.679 402.750 C 378.616 403.437, 380.201 404, 381.202 404 C 383.010 404, 460.846 360.107, 464.312 357.133 C 466.028 355.660, 466.091 353.214, 465.503 310.539 C 465.161 285.768, 464.694 264.565, 464.465 263.421 C 464.148 261.841, 460.255 258.867, 458.703 259.020 C 458.591 259.031, 440.050 269.739, 417.500 282.815 M 448 276.316 L 442.500 279.624 442.238 318.812 C 442.095 340.365, 442.320 357.982, 442.738 357.961 C 443.157 357.940, 445.975 356.446, 449 354.641 L 454.500 351.359 454.762 312.180 C 454.905 290.631, 454.680 273.002, 454.262 273.004 C 453.843 273.006, 451.025 274.497, 448 276.316 M 61 285.978 C 59.723 286.785, 59.457 292.103, 59.214 321.802 C 59.034 343.622, 59.306 357.674, 59.939 359.339 C 60.772 361.531, 61.577 362, 64.500 362 C 67.423 362, 68.228 361.531, 69.061 359.339 C 69.694 357.674, 69.966 343.622, 69.786 321.802 C 69.480 284.467, 69.561 285.031, 64.500 285.031 C 63.400 285.031, 61.825 285.457, 61 285.978 M 420.789 292.272 L 410.078 298.500 410.039 337.750 C 410.018 359.337, 410.237 377, 410.527 377 C 410.817 377, 415.767 374.251, 421.527 370.891 L 432 364.782 432 325.391 C 432 303.726, 431.887 286.010, 431.750 286.022 C 431.613 286.034, 426.680 288.846, 420.789 292.272 M 86.571 301.571 C 85.201 302.941, 85 307.728, 85 338.916 C 85 372.303, 85.122 374.800, 86.829 376.345 C 89.125 378.423, 91.405 378.452, 93.429 376.429 C 94.800 375.058, 95 370.215, 95 338.464 C 95 303.506, 94.924 302.030, 93.066 301.035 C 90.353 299.583, 88.398 299.745, 86.571 301.571 M 391.250 309.153 L 386 312.193 386 351.636 L 386 391.078 391.988 387.789 L 397.976 384.500 397.988 345.250 C 397.995 323.663, 397.663 306.025, 397.250 306.056 C 396.837 306.087, 394.137 307.481, 391.250 309.153 M 305.261 337.814 L 254.021 367.500 254.011 427.333 C 254.005 460.242, 254.385 487.017, 254.855 486.833 C 255.325 486.650, 278.711 473.225, 306.824 457 L 357.939 427.500 357.969 367.750 C 357.986 334.887, 357.663 308.029, 357.250 308.064 C 356.837 308.100, 333.442 321.487, 305.261 337.814 M 113.250 315.031 L 111 315.936 111 352.768 C 111 391.673, 111.039 392, 115.629 392 C 120.965 392, 121 391.751, 121 353.429 C 121 319.333, 120.925 317.925, 119 316 C 116.784 313.784, 116.480 313.733, 113.250 315.031 M 303.944 347.343 C 282.738 359.529, 264.171 370.301, 262.684 371.279 L 259.980 373.059 260.240 420.266 L 260.500 467.473 263.331 468.830 C 266.087 470.151, 267.274 469.551, 307.831 446.344 L 349.500 422.500 349.762 375 C 350.004 331.233, 349.890 327.402, 348.321 326.250 C 347.384 325.563, 345.691 325.042, 344.559 325.093 C 343.426 325.144, 325.150 335.156, 303.944 347.343 M 137.035 331.934 C 135.372 335.043, 135.643 403.129, 137.328 405.434 C 138.890 407.570, 143.846 407.852, 145.098 405.875 C 146.520 403.631, 146.236 332.636, 144.800 331.200 C 142.899 329.299, 138.208 329.742, 137.035 331.934 M 334 342.359 L 328.500 345.641 328.239 385.284 L 327.977 424.928 333.989 421.347 L 340 417.766 340 378.383 C 340 356.722, 339.887 339.018, 339.750 339.039 C 339.613 339.060, 337.025 340.554, 334 342.359 M 163.750 345.080 C 162.134 346.021, 162 348.887, 162 382.478 C 162 414.217, 162.200 419.058, 163.571 420.429 C 164.436 421.293, 165.979 422, 167 422 C 168.021 422, 169.564 421.293, 170.429 420.429 C 171.799 419.059, 172 414.272, 172 383.084 C 172 349.697, 171.878 347.200, 170.171 345.655 C 168.091 343.772, 166.275 343.610, 163.750 345.080 M 305.250 359.307 L 295 365.429 295 404.798 C 295 426.451, 295.369 444.017, 295.820 443.833 C 296.271 443.650, 301.213 440.800, 306.802 437.500 L 316.964 431.500 316.982 392.250 C 316.992 370.663, 316.663 353.041, 316.250 353.092 C 315.837 353.143, 310.887 355.939, 305.250 359.307 M 190.693 359.769 C 189.699 359.989, 188.462 361.285, 187.943 362.649 C 187.420 364.026, 187 380.141, 187 398.843 C 187 435.465, 187.221 437, 192.500 437 C 197.794 437, 198 435.541, 198 397.969 C 198 362.366, 197.856 360.994, 194 359.824 C 193.175 359.574, 191.687 359.549, 190.693 359.769 M 276.750 375.623 L 271 379.089 271 418.045 C 271 441.097, 271.376 457, 271.920 457 C 272.426 457, 275.342 455.538, 278.401 453.750 L 283.961 450.500 283.980 411.250 C 283.991 389.663, 283.663 372.035, 283.250 372.079 C 282.837 372.122, 279.913 373.717, 276.750 375.623 M 215.035 376.934 C 214.377 378.164, 214 391.823, 214 414.411 L 214 449.954 216.500 451.592 C 218.816 453.109, 219.184 453.109, 221.500 451.592 L 224 449.954 224 413.512 C 224 378.507, 223.924 377.030, 222.066 376.035 C 219.075 374.434, 216.175 374.805, 215.035 376.934" stroke="none" fill="#000000" fill-rule="evenodd"/>
</svg>