<svg xmlns="http://www.w3.org/2000/svg" width="512" height="512" viewBox="0 0 512 512" version="1.1">
	<path d="M 32.500 36.867 C 26.548 39.581, 22.225 43.648, 19.201 49.380 L 16.500 54.500 16.500 209 L 16.500 363.500 18.711 367.634 C 21.526 372.898, 26.102 377.474, 31.366 380.289 L 35.500 382.500 123.791 382.771 L 212.083 383.042 211.410 386.771 C 208.326 403.855, 196.290 419.812, 180.705 427.481 C 169.781 432.856, 162.649 433.963, 138.806 433.983 C 118.390 434, 118.074 434.032, 115.306 436.411 C 112.520 438.805, 112.498 438.920, 112.169 452.575 C 111.792 468.261, 112.313 472.313, 115.056 475.056 C 116.963 476.963, 119.672 477, 257 477 C 394.328 477, 397.037 476.963, 398.944 475.056 C 401.697 472.303, 402.248 468.024, 401.850 452.475 C 401.503 438.944, 401.476 438.804, 398.694 436.413 C 395.926 434.032, 395.614 434, 375.194 433.983 C 351.351 433.963, 344.219 432.856, 333.295 427.481 C 317.628 419.771, 305.706 403.963, 302.593 386.771 L 301.917 383.043 389.209 382.771 L 476.500 382.500 480.634 380.289 C 485.898 377.474, 490.474 372.898, 493.289 367.634 L 495.500 363.500 495.500 209 L 495.500 54.500 492.799 49.380 C 489.775 43.648, 485.452 39.581, 479.500 36.867 C 475.668 35.120, 466.285 35.044, 256 35.044 C 45.715 35.044, 36.332 35.120, 32.500 36.867 M 37.271 48.964 C 34.829 50.072, 32.189 52.282, 31.024 54.192 C 29.028 57.467, 29.007 58.878, 29.004 195.250 L 29 333 256 333 L 483 333 482.996 195.250 C 482.993 58.878, 482.972 57.467, 480.976 54.192 C 479.811 52.282, 477.171 50.072, 474.729 48.964 C 470.601 47.090, 465.382 47.044, 256 47.044 C 46.618 47.044, 41.399 47.090, 37.271 48.964 M 213.146 105.508 C 190.952 118.361, 171.939 129.650, 170.896 130.594 C 169.083 132.235, 169.001 134.463, 169.015 181.405 C 169.024 208.407, 169.372 231.038, 169.790 231.695 C 171.081 233.726, 253.714 281, 255.973 281 C 258.071 281, 338.800 235.058, 341.572 232.286 C 342.771 231.086, 343 222.955, 343 181.603 L 343 132.349 340.750 130.333 C 336.514 126.538, 258.129 82, 255.809 82.069 C 254.539 82.107, 235.341 92.655, 213.146 105.508 M 221.214 115.463 L 187.928 134.792 191.214 136.772 C 193.021 137.861, 208.342 146.724, 225.259 156.467 L 256.019 174.183 288.383 155.545 C 306.183 145.293, 321.455 136.364, 322.322 135.703 C 323.643 134.694, 318.576 131.439, 290.870 115.500 C 272.705 105.050, 257.091 96.418, 256.172 96.317 C 255.252 96.217, 239.521 104.832, 221.214 115.463 M 181.579 146.754 C 181.261 147.073, 181 164.528, 181 185.544 C 181 214.909, 181.289 223.988, 182.250 224.762 C 184.659 226.704, 248.029 263, 249.010 263 C 249.646 263, 250 249.145, 250 224.182 L 250 185.364 234.250 176.292 C 225.588 171.302, 210.323 162.484, 200.329 156.697 C 190.335 150.910, 181.897 146.436, 181.579 146.754 M 295.750 165.882 L 262 185.426 262 224.213 C 262 249.014, 262.355 263, 262.985 263 C 263.880 263, 318.355 231.916, 327.250 226.330 L 331 223.975 331 185.546 C 331 164.411, 330.663 146.942, 330.250 146.728 C 329.837 146.513, 314.313 155.133, 295.750 165.882 M 376.126 193.949 C 368.916 194.499, 367.482 194.921, 365.809 196.988 C 364.287 198.867, 363.981 200.376, 364.399 203.944 C 364.692 206.450, 365.222 213.124, 365.576 218.775 C 366.301 230.360, 367.684 233.250, 372.500 233.250 C 377.508 233.250, 379.204 229.913, 378.430 221.585 L 377.772 214.500 383.500 220 C 415.860 251.070, 371.823 286.366, 288.500 296.145 C 275.603 297.658, 236.397 297.658, 223.500 296.145 C 169.737 289.835, 130.274 272.821, 120.447 251.713 C 113.850 237.544, 120.252 224.139, 140 210.773 C 145.710 206.909, 146.537 205.946, 146.801 202.851 C 147.153 198.719, 145.256 196.667, 141.082 196.667 C 133.923 196.667, 113.869 214.431, 108.382 225.633 C 105.831 230.842, 105.508 232.565, 105.508 241 C 105.508 249.435, 105.831 251.158, 108.382 256.367 C 117.919 275.837, 145.872 292.885, 183.238 302.022 C 208.848 308.284, 220.122 309.432, 256 309.432 C 292.535 309.432, 304.637 308.147, 330.495 301.519 C 367.710 291.981, 394.179 275.637, 403.618 256.367 C 406.169 251.158, 406.492 249.435, 406.492 241 C 406.492 232.565, 406.169 230.842, 403.618 225.633 C 402.037 222.406, 397.822 216.669, 394.251 212.883 L 387.758 206 391.135 206 C 395.565 206, 401.152 204.363, 402.164 202.768 C 403.574 200.548, 403.062 196.366, 401.171 194.655 C 399.202 192.873, 392.644 192.688, 376.126 193.949 M 29.151 353.990 C 29.501 361.696, 29.648 362.115, 33.274 365.740 L 37.033 369.500 256 369.500 L 474.967 369.500 478.726 365.740 C 482.352 362.115, 482.499 361.696, 482.849 353.990 L 483.212 346 256 346 L 28.788 346 29.151 353.990 M 224.576 385.250 C 224.322 386.488, 223.595 389.975, 222.961 393 C 222.326 396.025, 219.776 402.745, 217.292 407.933 C 213.523 415.808, 211.405 418.738, 204.460 425.683 L 196.143 434 256.915 434 L 317.687 434 309.571 425.750 C 298.727 414.729, 292.984 403.874, 289.995 388.750 L 288.858 383 256.948 383 L 225.038 383 224.576 385.250 M 125 456 L 125 465 257 465 L 389 465 389 456 L 389 447 257 447 L 125 447 125 456" stroke="none" fill="#000000" fill-rule="evenodd"/>
</svg>